<svg width="24" height="24" viewBox="0 0 24 24" fill="none" xmlns="http://www.w3.org/2000/svg">
<path d="M22.6363 1.11818C21.9272 0.409091 20.9727 0 19.909 0H4.09083C3.0272 0 2.07265 0.436364 1.36356 1.11818C0.654468 1.82727 0.245377 2.78182 0.245377 3.84545V16.4182V17.5909V20.1273C0.245377 21.1909 0.68174 22.1455 1.36356 22.8545C2.07265 23.5636 3.0272 23.9727 4.09083 23.9727H19.909V24C20.9727 24 21.9272 23.5636 22.6363 22.8818C23.3454 22.1727 23.7545 21.2182 23.7545 20.1545V17.6182V14.1273V3.84545C23.7545 2.78182 23.3181 1.82727 22.6363 1.11818ZM22.309 17.6182V20.1545C22.309 20.8091 22.0363 21.4091 21.5999 21.8455C21.1636 22.2818 20.5636 22.5545 19.909 22.5545H4.09083C3.43629 22.5545 2.83629 22.2818 2.39992 21.8455C1.96356 21.3818 1.7181 20.8091 1.7181 20.1545V17.6182V16.7455L6.54538 11.8909L10.6636 16.0091C10.9363 16.2818 11.3999 16.2818 11.6999 16.0091L17.7817 9.9L22.309 14.4273V17.6182V17.6182ZM22.309 12.3818L18.2999 8.34545C18.0272 8.07273 17.5636 8.04545 17.2636 8.34545L11.1817 14.4545L7.06356 10.3364C6.79083 10.0636 6.3272 10.0364 6.0272 10.3364L1.7181 14.6727V3.84545C1.7181 3.19091 1.96356 2.61818 2.39992 2.18182C2.83629 1.74545 3.43629 1.47273 4.09083 1.47273H19.909C20.5636 1.47273 21.1636 1.74545 21.5999 2.18182C22.0363 2.61818 22.309 3.21818 22.309 3.87273V12.3818Z" fill="black"/>
<path d="M11.0454 10.1727C12.1299 10.1727 13.0091 9.29358 13.0091 8.20909C13.0091 7.1246 12.1299 6.24545 11.0454 6.24545C9.96095 6.24545 9.0818 7.1246 9.0818 8.20909C9.0818 9.29358 9.96095 10.1727 11.0454 10.1727Z" fill="black"/>
</svg>
