<svg width="25" height="24" viewBox="0 0 25 24" fill="none" xmlns="http://www.w3.org/2000/svg">
<path d="M24.1337 10.4388C24.133 10.4383 24.1324 10.4376 24.1319 10.437L14.3668 0.647278C13.9506 0.229797 13.3972 0 12.8086 0C12.2199 0 11.6665 0.229797 11.2501 0.647278L1.49018 10.4321C1.48689 10.4354 1.48342 10.4388 1.48032 10.4421C0.625576 11.304 0.627037 12.7024 1.48452 13.5621C1.87627 13.955 2.3935 14.1824 2.94671 14.2064C2.96935 14.2086 2.992 14.2097 3.01483 14.2097H3.40385V21.4142C3.40385 22.84 4.56104 24 5.98323 24H9.80363C10.191 24 10.505 23.6851 10.505 23.2969V17.6484C10.505 16.9979 11.033 16.4687 11.6819 16.4687H13.9352C14.5841 16.4687 15.112 16.9979 15.112 17.6484V23.2969C15.112 23.6851 15.4259 24 15.8133 24H19.6337C21.0561 24 22.2131 22.84 22.2131 21.4142V14.2097H22.574C23.1624 14.2097 23.7158 13.9799 24.1324 13.5623C24.9908 12.7013 24.9912 11.3004 24.1337 10.4388ZM23.1405 12.568C22.9891 12.7198 22.7878 12.8035 22.574 12.8035H21.5117C21.1244 12.8035 20.8104 13.1182 20.8104 13.5066V21.4142C20.8104 22.0646 20.2826 22.5938 19.6337 22.5938H16.5146V17.6484C16.5146 16.2226 15.3576 15.0624 13.9352 15.0624H11.6819C10.2595 15.0624 9.1023 16.2226 9.1023 17.6484V22.5938H5.98323C5.3345 22.5938 4.8065 22.0646 4.8065 21.4142V13.5066C4.8065 13.1182 4.49255 12.8035 4.10517 12.8035H3.06122C3.05026 12.8027 3.03949 12.8022 3.02835 12.802C2.81941 12.7983 2.62344 12.7152 2.4766 12.5678C2.16429 12.2547 2.16429 11.7451 2.4766 11.4318C2.47642 11.432 2.47678 11.4318 2.4766 11.4318L12.2422 1.64154C12.3934 1.48975 12.5945 1.40625 12.8086 1.40625C13.0224 1.40625 13.2235 1.48975 13.3749 1.64154L23.1374 11.4289C23.1389 11.4304 23.1405 11.4318 23.142 11.4333C23.4526 11.7469 23.4521 12.2554 23.1405 12.568Z" fill="#263238"/>
</svg>
